<svg width="1600" height="900" viewBox="0 0 1600 900" fill="none" xmlns="http://www.w3.org/2000/svg">
  <defs>
    <linearGradient id="bg" x1="0" y1="0" x2="1600" y2="900" gradientUnits="userSpaceOnUse">
      <stop stop-color="#E6DDD2"/>
      <stop offset="1" stop-color="#D2C3B3"/>
    </linearGradient>
    <filter id="shadow" x="180" y="120" width="1220" height="680" filterUnits="userSpaceOnUse" color-interpolation-filters="sRGB">
      <feDropShadow dx="0" dy="18" stdDeviation="24" flood-color="#000000" flood-opacity="0.16"/>
    </filter>
  </defs>
  <rect width="1600" height="900" fill="url(#bg)"/>
  <ellipse cx="1220" cy="130" rx="120" ry="120" fill="#EFE8DF"/>
  <rect x="1115" y="40" width="210" height="250" rx="96" fill="#F8F5F0"/>
  <path d="M1175 105C1218 68 1282 68 1325 105" stroke="#6DA04B" stroke-width="18" stroke-linecap="round"/>
  <path d="M1150 138C1190 90 1260 75 1320 102" stroke="#7EB756" stroke-width="18" stroke-linecap="round"/>
  <path d="M1188 170C1226 123 1287 110 1340 132" stroke="#5A8D3F" stroke-width="18" stroke-linecap="round"/>
  <g opacity="0.95">
    <path d="M110 275C160 235 240 228 300 270" stroke="#11181F" stroke-width="12" stroke-linecap="round"/>
    <circle cx="255" cy="285" r="102" stroke="#11181F" stroke-width="12"/>
    <circle cx="485" cy="250" r="102" stroke="#11181F" stroke-width="12"/>
    <path d="M355 245C390 222 430 220 460 242" stroke="#11181F" stroke-width="12" stroke-linecap="round"/>
    <path d="M553 260L690 230" stroke="#11181F" stroke-width="12" stroke-linecap="round"/>
    <path d="M150 350L70 420" stroke="#11181F" stroke-width="12" stroke-linecap="round"/>
    <path d="M510 350L590 420" stroke="#11181F" stroke-width="12" stroke-linecap="round"/>
  </g>
  <g filter="url(#shadow)">
    <rect x="210" y="250" width="1050" height="560" rx="26" transform="rotate(-8 210 250)" fill="#F9FBFD"/>
    <rect x="230" y="275" width="1030" height="540" rx="22" transform="rotate(-8 230 275)" fill="#FDFEFF"/>
    <path d="M240 300L260 795" stroke="#0E141B" stroke-width="8"/>
    <path d="M280 290L300 785" stroke="#0E141B" stroke-width="8"/>
    <path d="M320 282L340 777" stroke="#0E141B" stroke-width="8"/>
  </g>
  <text x="470" y="560" transform="rotate(-8 470 560)" fill="#252B33" font-size="96" font-family="Arial, Helvetica, sans-serif" letter-spacing="2">CONCLUSIONES</text>
  <path d="M470 620L1040 540" stroke="#252B33" stroke-width="9" stroke-linecap="round"/>
  <g transform="rotate(14 1110 650)">
    <rect x="910" y="620" width="300" height="32" rx="16" fill="#161D25"/>
    <rect x="1145" y="620" width="35" height="32" rx="10" fill="#C7CCD3"/>
    <path d="M1180 620L1220 636L1180 652V620Z" fill="#E2E6EB"/>
    <rect x="1218" y="624" width="20" height="24" rx="8" fill="#ADB4BE"/>
  </g>
</svg>
