<svg width="256" height="256" viewBox="0 0 256 256" fill="none" xmlns="http://www.w3.org/2000/svg">
  <circle cx="128" cy="128" r="98" fill="#3F5B6F"/>
  <circle cx="128" cy="128" r="50" stroke="white" stroke-width="8" fill="none"/>
  <rect x="96" y="102" width="44" height="54" rx="6" fill="white"/>
  <path d="M103 114L107 118L114 111" stroke="#3F5B6F" stroke-width="4.5" stroke-linecap="round" stroke-linejoin="round"/>
  <path d="M121 115H132" stroke="#3F5B6F" stroke-width="4.5" stroke-linecap="round"/>
  <path d="M103 127L107 131L114 124" stroke="#3F5B6F" stroke-width="4.5" stroke-linecap="round" stroke-linejoin="round"/>
  <path d="M121 128H132" stroke="#3F5B6F" stroke-width="4.5" stroke-linecap="round"/>
  <path d="M103 140L107 144L114 137" stroke="#3F5B6F" stroke-width="4.5" stroke-linecap="round" stroke-linejoin="round"/>
  <path d="M121 141H132" stroke="#3F5B6F" stroke-width="4.5" stroke-linecap="round"/>
  <path d="M145 114L166 121V136C166 145 157 152 145 157C133 152 124 145 124 136V121L145 114Z" fill="white"/>
  <path d="M137 136L143 142L154 130" stroke="#3F5B6F" stroke-width="5" stroke-linecap="round" stroke-linejoin="round"/>
</svg>
