<svg width="1600" height="900" viewBox="0 0 1600 900" fill="none" xmlns="http://www.w3.org/2000/svg">
  <defs>
    <linearGradient id="bg" x1="0" y1="0" x2="1600" y2="900" gradientUnits="userSpaceOnUse">
      <stop stop-color="#E2D7C9"/>
      <stop offset="1" stop-color="#CFBCA6"/>
    </linearGradient>
    <filter id="shadow" x="220" y="110" width="1160" height="720" filterUnits="userSpaceOnUse" color-interpolation-filters="sRGB">
      <feDropShadow dx="0" dy="18" stdDeviation="24" flood-color="#000000" flood-opacity="0.16"/>
    </filter>
  </defs>
  <rect width="1600" height="900" fill="url(#bg)"/>
  <rect x="0" y="0" width="1600" height="100" fill="#F6F0E8" opacity="0.55"/>
  <rect x="1180" y="210" width="250" height="330" rx="6" fill="#D6D0C7"/>
  <rect x="1210" y="180" width="250" height="330" rx="6" fill="#2F4858"/>
  <rect x="1245" y="150" width="250" height="330" rx="6" fill="#1F3341"/>
  <rect x="0" y="0" width="1600" height="900" fill="#FFFFFF" opacity="0.08"/>
  <rect x="42" y="110" width="160" height="220" rx="52" fill="#FAF8F3"/>
  <ellipse cx="120" cy="150" rx="62" ry="82" fill="#709F2B"/>
  <path d="M78 132C98 92 132 78 170 92" stroke="#89B93C" stroke-width="14" stroke-linecap="round"/>
  <path d="M68 174C102 128 150 118 194 138" stroke="#7AA83A" stroke-width="14" stroke-linecap="round"/>
  <path d="M88 208C126 158 172 150 205 178" stroke="#5E8C2A" stroke-width="14" stroke-linecap="round"/>
  <g filter="url(#shadow)">
    <rect x="330" y="170" width="940" height="620" rx="26" transform="rotate(-3 330 170)" fill="#F9FBFD"/>
    <rect x="352" y="194" width="900" height="580" rx="20" transform="rotate(-3 352 194)" fill="#FFFFFF"/>
    <path d="M372 214L404 760" stroke="#101820" stroke-width="8"/>
    <path d="M408 212L440 758" stroke="#101820" stroke-width="8"/>
    <path d="M444 210L476 756" stroke="#101820" stroke-width="8"/>
  </g>
  <text x="620" y="540" transform="rotate(-3 620 540)" fill="#252B33" font-size="106" font-family="Arial, Helvetica, sans-serif" font-weight="700" letter-spacing="2">RESUMEN</text>
  <path d="M620 600L1130 574" stroke="#252B33" stroke-width="10" stroke-linecap="round"/>
  <g transform="rotate(6 160 660)">
    <rect x="132" y="560" width="34" height="260" rx="17" fill="#171E26"/>
    <rect x="132" y="760" width="34" height="24" rx="10" fill="#C0C7D0"/>
    <path d="M132 560L149 515L166 560H132Z" fill="#D2D8E0"/>
    <rect x="142" y="532" width="14" height="22" rx="7" fill="#ADB4BE"/>
  </g>
</svg>
